<svg width="42" height="42" viewBox="0 0 42 42" fill="none" xmlns="http://www.w3.org/2000/svg">
<rect width="42" height="42" rx="5" fill="#AC75DD"/>
<path d="M5.10512 21.8496C10.0803 21.8496 15.0551 21.8496 20.0303 21.8496C20.0548 21.8496 20.079 21.8544 20.1017 21.8638C20.1692 21.8918 20.2141 21.957 20.2169 22.0301C20.2204 22.1206 20.224 22.211 20.224 22.3016C20.2244 27.075 20.2244 31.8479 20.2244 36.6213C20.2244 36.8889 20.0074 37.1058 19.7398 37.1058C14.9383 37.1058 10.161 37.1058 5.36778 37.1058C5.17438 37.1058 5.00074 36.9571 5.00074 36.7637C4.99957 31.8726 4.99996 26.982 5.00074 22.0909C5.00074 22.0298 5.00904 21.969 5.01428 21.9079C5.01492 21.9004 5.01932 21.8939 5.02596 21.8905C5.05241 21.877 5.07864 21.8632 5.10516 21.8498C5.10525 21.8497 5.10522 21.8496 5.10512 21.8496Z" fill="white"/>
<path d="M20.1922 20.1937C20.1709 20.2216 20.1382 20.2385 20.1031 20.2401C19.9651 20.2462 19.8273 20.2551 19.6892 20.2551C14.9818 20.2559 10.274 20.2559 5.5666 20.2562C5.41452 20.2562 5.26281 20.2621 5.11076 20.2654C5.10106 20.2656 5.09136 20.2643 5.08204 20.2616C5.04152 20.25 5.01311 20.2136 5.01123 20.1715C5.00645 20.0646 5.00039 19.9576 5.00039 19.8509C5 15.0532 5 10.2552 5 5.45753C5 5.23196 5.15007 5.06211 5.37555 5.05585C7.50896 4.9966 17.967 4.97855 19.9058 5.03092C20.0794 5.0356 20.2233 5.16702 20.2233 5.3406C20.2245 10.2167 20.2245 15.0929 20.2237 19.969C20.2237 20.0221 20.2195 20.0752 20.2162 20.1286C20.2148 20.1522 20.2066 20.1749 20.1922 20.1937Z" fill="white"/>
<path d="M21.7893 24.7956C21.7892 24.7957 21.7891 24.7956 21.7891 24.7955C21.7891 24.745 21.7891 24.6949 21.7891 24.6444C21.7891 24.6165 21.7891 24.5882 21.7891 24.5604C21.7891 24.5098 21.7891 24.4595 21.7891 24.4089C21.7891 24.3811 21.7891 24.3528 21.7891 24.3249C21.7891 24.2743 21.7891 24.2241 21.7891 24.1735C21.7891 24.1456 21.7891 24.1174 21.7891 24.0895C21.7891 24.0389 21.7891 23.9887 21.7891 23.9381C21.7891 23.9102 21.7891 23.8819 21.7891 23.8541C21.7891 23.8035 21.7891 23.7532 21.7891 23.7026C21.7891 23.6748 21.7891 23.6465 21.7891 23.6187C21.7891 23.568 21.7891 23.5178 21.7891 23.4672C21.7891 23.4393 21.7891 23.4111 21.7891 23.3832C21.7891 23.3326 21.7891 23.2824 21.7891 23.2318C21.7891 23.2039 21.7891 23.1757 21.7891 23.1478C21.7891 23.0972 21.7891 23.047 21.7891 22.9963C21.7891 22.9685 21.7891 22.9402 21.7891 22.9124C21.7891 22.8618 21.7891 22.8115 21.7891 22.7609C21.7891 22.7331 21.7891 22.7048 21.7891 22.6769C21.7891 22.6263 21.7891 22.5761 21.7891 22.5255C21.7891 22.4976 21.7891 22.4694 21.7891 22.4415C21.7891 22.3909 21.7891 22.3407 21.7891 22.2901C21.7891 22.2622 21.7891 22.2339 21.7891 22.2061C21.7891 22.1555 21.7891 22.1052 21.7891 22.0546C21.7891 22.0316 21.7891 22.0083 21.7891 21.9852C21.7891 21.9756 21.7905 21.966 21.7937 21.9569C21.8056 21.9218 21.8393 21.8992 21.8764 21.8991C22.6925 21.8975 23.5086 21.8945 24.3246 21.8945C28.514 21.8957 32.7033 21.8977 36.8931 21.8992C36.9299 21.8992 36.9647 21.9156 36.9883 21.9439C37.0059 21.965 37.016 21.9915 37.0171 22.019C37.0202 22.0963 37.0241 22.1736 37.0241 22.2508C37.0245 27.0622 37.0245 31.8736 37.0241 36.685C37.0241 36.7624 37.0202 36.8399 37.0171 36.9173C37.0159 36.9449 37.0088 36.972 36.996 36.9965C36.9658 37.0544 36.9077 37.0926 36.8426 37.0974C36.7866 37.1015 36.7305 37.1052 36.6745 37.1052C31.8246 37.106 26.9752 37.106 22.1253 37.1052C22.0673 37.1052 22.009 37.1016 21.9509 37.0982C21.912 37.096 21.875 37.0805 21.8465 37.054C21.8402 37.0482 21.8339 37.0424 21.8276 37.0365C21.826 37.035 21.8241 37.0338 21.8221 37.0329L21.8093 37.0276C21.8072 37.0267 21.8048 37.0276 21.8038 37.0297C21.8019 37.0337 21.796 37.0325 21.7958 37.0281C21.7937 36.9808 21.7916 36.9336 21.7895 36.8863C21.7895 36.8584 21.7895 36.8302 21.7895 36.8023C21.7895 36.7517 21.7895 36.7015 21.7895 36.6509C21.7895 36.623 21.7895 36.5948 21.7895 36.5669C21.7895 36.5163 21.7895 36.4661 21.7895 36.4154C21.7895 36.3876 21.7895 36.3593 21.7895 36.3315C21.7895 36.2809 21.7895 36.2306 21.7895 36.18C21.7895 36.1522 21.7895 36.1239 21.7895 36.096C21.7895 36.0454 21.7895 35.9952 21.7895 35.9446C21.7895 35.9167 21.7895 35.8885 21.7895 35.8606C21.7895 35.81 21.7895 35.7598 21.7895 35.7092C21.7895 35.6813 21.7895 35.653 21.7895 35.6252C21.7895 35.5746 21.7895 35.5243 21.7895 35.4737C21.7895 35.4459 21.7895 35.4176 21.7895 35.3898C21.7895 35.3391 21.7895 35.2889 21.7895 35.2383C21.7895 35.2104 21.7895 35.1822 21.7895 35.1543C21.7895 35.1037 21.7895 35.0535 21.7895 35.0029C21.7895 34.975 21.7895 34.9468 21.7895 34.9189C21.7895 34.8683 21.7895 34.818 21.7895 34.7674C21.7895 34.7396 21.7895 34.7113 21.7895 34.6835C21.7895 34.6328 21.7895 34.5826 21.7895 34.532C21.7895 34.5041 21.7895 34.4759 21.7895 34.448C21.7895 34.3974 21.7895 34.3472 21.7895 34.2966C21.7895 34.2687 21.7895 34.2405 21.7895 34.2126C21.7895 34.162 21.7895 34.1118 21.7895 34.0611C21.7895 34.0333 21.7895 34.005 21.7895 33.9772C21.7895 33.9266 21.7895 33.8763 21.7895 33.8257C21.7895 33.7979 21.7895 33.7696 21.7895 33.7417C21.7895 33.6911 21.7895 33.6409 21.7895 33.5903C21.7895 33.5624 21.7895 33.5342 21.7895 33.5063C21.7895 33.4557 21.7895 33.4055 21.7895 33.3549C21.7895 33.327 21.7895 33.2987 21.7895 33.2709C21.7895 33.2203 21.7895 33.17 21.7895 33.1194C21.7895 33.0916 21.7895 33.0633 21.7895 33.0355C21.7895 32.9848 21.7895 32.9346 21.7895 32.884C21.7895 32.8561 21.7895 32.8279 21.7895 32.8C21.7895 32.7494 21.7895 32.6992 21.7895 32.6486C21.7895 32.6207 21.7895 32.5925 21.7895 32.5646C21.7895 32.514 21.7895 32.4638 21.7895 32.4131C21.7895 32.3853 21.7895 32.357 21.7895 32.3292C21.7895 32.2785 21.7895 32.2283 21.7895 32.1777C21.7895 32.1498 21.7895 32.1216 21.7895 32.0937C21.7895 32.0431 21.7895 31.9929 21.7895 31.9423C21.7895 31.9144 21.7895 31.8862 21.7895 31.8583C21.7895 31.8077 21.7895 31.7575 21.7895 31.7068C21.7895 31.679 21.7895 31.6507 21.7895 31.6229C21.7895 31.5723 21.7895 31.522 21.7895 31.4714C21.7895 31.4436 21.7895 31.4153 21.7895 31.3874C21.7895 31.3368 21.7895 31.2866 21.7895 31.236C21.7895 31.2081 21.7895 31.1799 21.7895 31.152C21.7895 31.1014 21.7895 31.0512 21.7895 31.0006C21.7895 30.9727 21.7895 30.9444 21.7895 30.9166C21.7895 30.866 21.7895 30.8157 21.7895 30.7651C21.7895 30.7373 21.7895 30.709 21.7895 30.6812C21.7895 30.6305 21.7895 30.5803 21.7895 30.5297C21.7895 30.5018 21.7895 30.4736 21.7895 30.4457C21.7895 30.3951 21.7895 30.3449 21.7895 30.2943C21.7895 30.2664 21.7895 30.2382 21.7895 30.2103C21.7895 30.1597 21.7895 30.1095 21.7895 30.0588C21.7895 30.031 21.7895 30.0027 21.7895 29.9749C21.7895 29.9243 21.7895 29.874 21.7895 29.8234C21.7895 29.7956 21.7895 29.7673 21.7895 29.7394C21.7895 29.6888 21.7895 29.6386 21.7895 29.588C21.7895 29.5601 21.7895 29.5319 21.7895 29.504C21.7895 29.4534 21.7895 29.4032 21.7895 29.3526C21.7895 29.3247 21.7895 29.2964 21.7895 29.2686C21.7895 29.218 21.7895 29.1677 21.7895 29.1171C21.7895 29.0893 21.7895 29.061 21.7895 29.0332C21.7895 28.9825 21.7895 28.9323 21.7895 28.8817C21.7895 28.8538 21.7895 28.8256 21.7895 28.7977C21.7895 28.7471 21.7895 28.6969 21.7895 28.6463C21.7895 28.6184 21.7895 28.5901 21.7895 28.5623C21.7895 28.5117 21.7895 28.4614 21.7895 28.4108C21.7895 28.383 21.7895 28.3547 21.7895 28.3269C21.7895 28.2762 21.7895 28.226 21.7895 28.1754C21.7895 28.1475 21.7895 28.1193 21.7895 28.0914C21.7895 28.0408 21.7895 27.9906 21.7895 27.94C21.7895 27.9121 21.7895 27.8839 21.7895 27.856C21.7895 27.8054 21.7895 27.7552 21.7895 27.7045C21.7895 27.6767 21.7895 27.6484 21.7895 27.6206C21.7895 27.57 21.7895 27.5197 21.7895 27.4691C21.7895 27.4413 21.7895 27.413 21.7895 27.3851C21.7895 27.3345 21.7895 27.2843 21.7895 27.2337C21.7895 27.2058 21.7895 27.1776 21.7895 27.1497C21.7895 27.0991 21.7895 27.0489 21.7895 26.9983C21.7895 26.9704 21.7895 26.9421 21.7895 26.9143C21.7895 26.8637 21.7895 26.8134 21.7895 26.7628C21.7895 26.735 21.7895 26.7067 21.7895 26.6789C21.7895 26.6282 21.7895 26.578 21.7895 26.5274C21.7895 26.4995 21.7895 26.4713 21.7895 26.4434C21.7895 26.3928 21.7895 26.3426 21.7895 26.292C21.7895 26.2641 21.7895 26.2359 21.7895 26.208C21.7895 26.1574 21.7895 26.1072 21.7895 26.0565C21.7895 26.0287 21.7895 26.0004 21.7895 25.9726C21.7895 25.9219 21.7895 25.8717 21.7895 25.8211C21.7895 25.7932 21.7895 25.765 21.7895 25.7371C21.7895 25.6865 21.7895 25.6363 21.7895 25.5857C21.7895 25.5578 21.7895 25.5296 21.7895 25.5017C21.7895 25.4511 21.7895 25.4009 21.7895 25.3502C21.7895 25.3224 21.7895 25.2941 21.7895 25.2663C21.7895 25.2157 21.7895 25.1654 21.7895 25.1148C21.7895 25.087 21.7895 25.0587 21.7895 25.0308C21.7895 24.9802 21.7895 24.93 21.7895 24.8794C21.7895 24.8516 21.7895 24.8235 21.7895 24.7957C21.7895 24.7956 21.7893 24.7955 21.7893 24.7956Z" fill="white"/>
<path d="M21.819 20.1677C21.8143 20.0504 21.8053 19.9335 21.8053 19.8161C21.8045 15.0283 21.8045 10.24 21.8053 5.45218C21.8053 5.35079 21.8114 5.2497 21.8161 5.1484C21.8176 5.11757 21.8299 5.08825 21.8509 5.06565C21.8743 5.04045 21.9066 5.02527 21.941 5.02355C22.0533 5.01794 22.1653 5.01035 22.2777 5.01035C27.0401 5.00957 31.8024 5.00957 36.5648 5.01035C36.677 5.01035 36.7896 5.01915 36.9019 5.02534C36.9356 5.02719 36.9669 5.04278 36.9882 5.06889C37.0047 5.0891 37.014 5.11434 37.0147 5.14041C37.0191 5.29646 37.0258 5.45224 37.0258 5.60835C37.0266 10.2396 37.0258 14.8709 37.027 19.5026C37.027 19.6567 37.0364 19.8108 37.0426 19.9649C37.0437 19.9948 37.0414 20.0248 37.0357 20.0543C37.0302 20.0824 37.0248 20.1105 37.0194 20.1387C37.0149 20.1619 37.0035 20.1833 36.9867 20.2C36.9659 20.2206 36.9382 20.2329 36.909 20.2347C36.8072 20.2411 36.7054 20.2498 36.6036 20.2501C31.8024 20.2509 27.0012 20.2509 22.2 20.2501C22.1117 20.2501 22.023 20.2439 21.9346 20.2391C21.9044 20.2375 21.8758 20.2249 21.8545 20.2036C21.8427 20.1918 21.8309 20.18 21.8193 20.1684C21.8191 20.1682 21.819 20.168 21.819 20.1677Z" fill="white"/>
</svg>
